<?xml version="1.0" encoding="UTF-8" standalone="no"?>
<!-- Created with Inkscape (http://www.inkscape.org/) -->

<svg
   xmlns:dc="http://purl.org/dc/elements/1.1/"
   xmlns:cc="http://creativecommons.org/ns#"
   xmlns:rdf="http://www.w3.org/1999/02/22-rdf-syntax-ns#"
   xmlns:svg="http://www.w3.org/2000/svg"
   xmlns="http://www.w3.org/2000/svg"
   xmlns:sodipodi="http://sodipodi.sourceforge.net/DTD/sodipodi-0.dtd"
   xmlns:inkscape="http://www.inkscape.org/namespaces/inkscape"
   width="210mm"
   height="297mm"
   viewBox="0 0 210 297"
   version="1.1"
   id="svg8"
   inkscape:version="0.92.2 (5c3e80d, 2017-08-06)"
   sodipodi:docname="checkerboard.svg">
  <defs
     id="defs2" />
  <sodipodi:namedview
     id="base"
     pagecolor="#ffffff"
     bordercolor="#666666"
     borderopacity="1.0"
     inkscape:pageopacity="0.0"
     inkscape:pageshadow="2"
     inkscape:zoom="2.4483584"
     inkscape:cx="194.10577"
     inkscape:cy="-131.30482"
     inkscape:document-units="px"
     inkscape:current-layer="layer1"
     showgrid="false"
     showborder="false"
     inkscape:window-width="1920"
     inkscape:window-height="1028"
     inkscape:window-x="-8"
     inkscape:window-y="-8"
     inkscape:window-maximized="1" />
  <metadata
     id="metadata5">
    <rdf:RDF>
      <cc:Work
         rdf:about="">
        <dc:format>image/svg+xml</dc:format>
        <dc:type
           rdf:resource="http://purl.org/dc/dcmitype/StillImage" />
        <dc:title></dc:title>
      </cc:Work>
    </rdf:RDF>
  </metadata>
  <g
     inkscape:label="Layer 1"
     inkscape:groupmode="layer"
     id="layer1">
    <path
       style="opacity:0.05;vector-effect:none;fill:#000000;fill-opacity:1;stroke:none;stroke-width:0.27437696;stroke-linecap:butt;stroke-linejoin:round;stroke-miterlimit:4;stroke-dasharray:none;stroke-dashoffset:0;stroke-opacity:1"
       d="m 0,297 v 3.96879 H 3.968783 V 297 Z m 3.968783,3.96879 v 3.96864 h 3.968783 v -3.96864 z m 3.968783,0 h 3.968645 V 297 H 7.937566 Z m 3.968645,0 v 3.96864 h 3.968783 v -3.96864 z m 3.968783,0 h 3.968783 V 297 h -3.968783 z m 3.968783,0 v 3.96864 h 3.968782 v -3.96864 z m 3.968782,0 h 3.968647 V 297 h -3.968647 z m 3.968647,0 v 3.96864 h 3.968782 v -3.96864 z m 3.968782,0 h 3.968784 V 297 h -3.968784 z m 3.968784,0 v 3.96864 h 3.968784 v -3.96864 z m 3.968784,0 H 43.6562 V 297 h -3.968644 z m 3.968644,0 v 3.96864 h 3.968784 v -3.96864 z m 3.968784,0 h 3.96878 V 297 h -3.96878 z m 3.96878,0 v 3.96864 h 3.96879 v -3.96864 z m 3.96879,0 h 3.96878 V 297 h -3.96878 z m 3.96878,0 v 3.96864 h 3.96864 v -3.96864 z m 3.96864,0 h 3.96879 V 297 h -3.96879 z m 3.96879,0 v 3.96864 h 3.968778 v -3.96864 z m 3.968778,0 h 3.96878 V 297 h -3.96878 z m 3.96878,0 v 3.96864 h 3.96865 v -3.96864 z m 3.96865,0 h 3.96878 V 297 h -3.96878 z m 3.96878,0 v 3.96864 h 3.96878 v -3.96864 z m 3.96878,0 h 3.96879 V 297 h -3.96879 z m 3.96879,0 v 3.96864 h 3.96878 v -3.96864 z m 3.96878,0 h 3.96865 V 297 h -3.96865 z m 0,3.96864 v 3.96878 h 3.96865 v -3.96878 z m 0,3.96878 h -3.96878 v 3.96878 h 3.96878 z m 0,3.96878 v 3.96878 h 3.96865 v -3.96878 z m 0,3.96878 h -3.96878 v 3.96866 h 3.96878 z m 0,3.96866 v 3.96877 h 3.96865 v -3.96877 z m 0,3.96877 h -3.96878 v 3.96879 h 3.96878 z m 0,3.96879 v 3.96878 h 3.96865 v -3.96878 z m 0,3.96878 h -3.96878 v 3.96864 h 3.96878 z m 0,3.96864 v 3.96879 h 3.96865 v -3.96879 z m 0,3.96879 h -3.96878 v 3.96879 h 3.96878 z m 0,3.96879 v 3.96877 h 3.96865 v -3.96877 z m 0,3.96877 h -3.96878 v 3.96879 h 3.96878 z m 0,3.96879 v 3.96864 h 3.96865 v -3.96864 z m 0,3.96864 h -3.96878 v 3.96878 h 3.96878 z m -3.96878,0 v -3.96864 h -3.96879 v 3.96864 z m -3.96879,0 h -3.96878 v 3.96878 h 3.96878 z m -3.96878,0 v -3.96864 h -3.96878 v 3.96864 z m -3.96878,0 h -3.96865 v 3.96878 h 3.96865 z m -3.96865,0 v -3.96864 h -3.96878 v 3.96864 z m -3.96878,0 h -3.968778 v 3.96878 h 3.968778 z m -3.968778,0 v -3.96864 h -3.96879 v 3.96864 z m -3.96879,0 h -3.96864 v 3.96878 h 3.96864 z m -3.96864,0 v -3.96864 h -3.96878 v 3.96864 z m -3.96878,0 h -3.96879 v 3.96878 h 3.96879 z m -3.96879,0 v -3.96864 h -3.96878 v 3.96864 z m -3.96878,0 H 43.6562 v 3.96878 h 3.968784 z m -3.968784,0 v -3.96864 h -3.968644 v 3.96864 z m -3.968644,0 h -3.968784 v 3.96878 h 3.968784 z m -3.968784,0 v -3.96864 h -3.968784 v 3.96864 z m -3.968784,0 h -3.968782 v 3.96878 h 3.968782 z m -3.968782,0 v -3.96864 h -3.968647 v 3.96864 z m -3.968647,0 h -3.968782 v 3.96878 h 3.968782 z m -3.968782,0 v -3.96864 h -3.968783 v 3.96864 z m -3.968783,0 h -3.968783 v 3.96878 h 3.968783 z m -3.968783,0 v -3.96864 H 7.937566 v 3.96864 z m -3.968645,0 H 3.968783 v 3.96878 h 3.968783 z m -3.968783,0 v -3.96864 H 0 v 3.96864 z m 0,-3.96864 h 3.968783 v -3.96879 H 3.968783 Z m 0,-3.96879 v -3.96877 H 0 v 3.96877 z m 0,-3.96877 H 7.937566 V 340.6562 H 3.968783 Z m 0,-3.96879 v -3.96879 H 0 v 3.96879 z m 0,-3.96879 h 3.968783 v -3.96864 H 3.968783 Z m 0,-3.96864 v -3.96878 H 0 v 3.96878 z m 0,-3.96878 H 7.937566 V 324.7812 H 3.968783 Z m 0,-3.96879 v -3.96877 H 0 v 3.96877 z m 0,-3.96877 h 3.968783 v -3.96866 H 3.968783 Z m 0,-3.96866 v -3.96878 H 0 v 3.96878 z m 0,-3.96878 h 3.968783 v -3.96878 H 3.968783 Z m 0,-3.96878 v -3.96878 H 0 v 3.96878 z m 3.968783,0 h 3.968645 v -3.96878 H 7.937566 Z m 3.968645,0 v 3.96878 h 3.968783 v -3.96878 z m 3.968783,0 h 3.968783 v -3.96878 h -3.968783 z m 3.968783,0 v 3.96878 h 3.968782 v -3.96878 z m 3.968782,0 h 3.968647 v -3.96878 h -3.968647 z m 3.968647,0 v 3.96878 h 3.968782 v -3.96878 z m 3.968782,0 h 3.968784 v -3.96878 h -3.968784 z m 3.968784,0 v 3.96878 h 3.968784 v -3.96878 z m 3.968784,0 H 43.6562 v -3.96878 h -3.968644 z m 3.968644,0 v 3.96878 h 3.968784 v -3.96878 z m 3.968784,0 h 3.96878 v -3.96878 h -3.96878 z m 3.96878,0 v 3.96878 h 3.96879 v -3.96878 z m 3.96879,0 h 3.96878 v -3.96878 h -3.96878 z m 3.96878,0 v 3.96878 h 3.96864 v -3.96878 z m 3.96864,0 h 3.96879 v -3.96878 h -3.96879 z m 3.96879,0 v 3.96878 h 3.968778 v -3.96878 z m 3.968778,0 h 3.96878 v -3.96878 h -3.96878 z m 3.96878,0 v 3.96878 h 3.96865 v -3.96878 z m 3.96865,0 h 3.96878 v -3.96878 h -3.96878 z m 3.96878,0 v 3.96878 h 3.96878 v -3.96878 z m 3.96878,0 h 3.96879 v -3.96878 h -3.96879 z m 0,3.96878 v 3.96878 h 3.96879 v -3.96878 z m 0,3.96878 h -3.96878 v 3.96866 h 3.96878 z m 0,3.96866 v 3.96877 h 3.96879 v -3.96877 z m 0,3.96877 h -3.96878 v 3.96879 h 3.96878 z m 0,3.96879 v 3.96878 h 3.96879 v -3.96878 z m 0,3.96878 h -3.96878 v 3.96864 h 3.96878 z m 0,3.96864 v 3.96879 h 3.96879 v -3.96879 z m 0,3.96879 h -3.96878 v 3.96879 h 3.96878 z m 0,3.96879 v 3.96877 h 3.96879 v -3.96877 z m 0,3.96877 h -3.96878 v 3.96879 h 3.96878 z m -3.96878,0 v -3.96877 h -3.96878 v 3.96877 z m -3.96878,0 h -3.96865 v 3.96879 h 3.96865 z m -3.96865,0 v -3.96877 h -3.96878 v 3.96877 z m -3.96878,0 h -3.968778 v 3.96879 h 3.968778 z m -3.968778,0 v -3.96877 h -3.96879 v 3.96877 z m -3.96879,0 h -3.96864 v 3.96879 h 3.96864 z m -3.96864,0 v -3.96877 h -3.96878 v 3.96877 z m -3.96878,0 h -3.96879 v 3.96879 h 3.96879 z m -3.96879,0 v -3.96877 h -3.96878 v 3.96877 z m -3.96878,0 H 43.6562 v 3.96879 h 3.968784 z m -3.968784,0 v -3.96877 h -3.968644 v 3.96877 z m -3.968644,0 h -3.968784 v 3.96879 h 3.968784 z m -3.968784,0 v -3.96877 h -3.968784 v 3.96877 z m -3.968784,0 h -3.968782 v 3.96879 h 3.968782 z m -3.968782,0 v -3.96877 h -3.968647 v 3.96877 z m -3.968647,0 h -3.968782 v 3.96879 h 3.968782 z m -3.968782,0 v -3.96877 h -3.968783 v 3.96877 z m -3.968783,0 h -3.968783 v 3.96879 h 3.968783 z m -3.968783,0 v -3.96877 H 7.937566 v 3.96877 z m 0,-3.96877 h 3.968783 v -3.96879 h -3.968783 z m 0,-3.96879 v -3.96879 H 7.937566 v 3.96879 z m 0,-3.96879 h 3.968783 v -3.96864 h -3.968783 z m 0,-3.96864 v -3.96878 H 7.937566 v 3.96878 z m 0,-3.96878 h 3.968783 v -3.96879 h -3.968783 z m 0,-3.96879 v -3.96877 H 7.937566 v 3.96877 z m 0,-3.96877 h 3.968783 v -3.96866 h -3.968783 z m 0,-3.96866 v -3.96878 H 7.937566 v 3.96878 z m 3.968783,0 h 3.968783 v -3.96878 h -3.968783 z m 3.968783,0 v 3.96866 h 3.968782 v -3.96866 z m 3.968782,0 h 3.968647 v -3.96878 h -3.968647 z m 3.968647,0 v 3.96866 h 3.968782 v -3.96866 z m 3.968782,0 h 3.968784 v -3.96878 h -3.968784 z m 3.968784,0 v 3.96866 h 3.968784 v -3.96866 z m 3.968784,0 H 43.6562 v -3.96878 h -3.968644 z m 3.968644,0 v 3.96866 h 3.968784 v -3.96866 z m 3.968784,0 h 3.96878 v -3.96878 h -3.96878 z m 3.96878,0 v 3.96866 h 3.96879 v -3.96866 z m 3.96879,0 h 3.96878 v -3.96878 h -3.96878 z m 3.96878,0 v 3.96866 h 3.96864 v -3.96866 z m 3.96864,0 h 3.96879 v -3.96878 h -3.96879 z m 3.96879,0 v 3.96866 h 3.968778 v -3.96866 z m 3.968778,0 h 3.96878 v -3.96878 h -3.96878 z m 3.96878,0 v 3.96866 h 3.96865 v -3.96866 z m 3.96865,0 h 3.96878 v -3.96878 h -3.96878 z m 0,3.96866 v 3.96877 h 3.96878 v -3.96877 z m 0,3.96877 h -3.96865 v 3.96879 h 3.96865 z m 0,3.96879 v 3.96878 h 3.96878 v -3.96878 z m 0,3.96878 h -3.96865 v 3.96864 h 3.96865 z m 0,3.96864 v 3.96879 h 3.96878 v -3.96879 z m 0,3.96879 h -3.96865 v 3.96879 h 3.96865 z m -3.96865,0 v -3.96879 h -3.96878 v 3.96879 z m -3.96878,0 h -3.968778 v 3.96879 h 3.968778 z m -3.968778,0 v -3.96879 h -3.96879 v 3.96879 z m -3.96879,0 h -3.96864 v 3.96879 h 3.96864 z m -3.96864,0 v -3.96879 h -3.96878 v 3.96879 z m -3.96878,0 h -3.96879 v 3.96879 h 3.96879 z m -3.96879,0 v -3.96879 h -3.96878 v 3.96879 z m -3.96878,0 H 43.6562 v 3.96879 h 3.968784 z m -3.968784,0 v -3.96879 h -3.968644 v 3.96879 z m -3.968644,0 h -3.968784 v 3.96879 h 3.968784 z m -3.968784,0 v -3.96879 h -3.968784 v 3.96879 z m -3.968784,0 h -3.968782 v 3.96879 h 3.968782 z m -3.968782,0 v -3.96879 h -3.968647 v 3.96879 z m -3.968647,0 h -3.968782 v 3.96879 h 3.968782 z m -3.968782,0 v -3.96879 h -3.968783 v 3.96879 z m 0,-3.96879 h 3.968782 v -3.96864 h -3.968782 z m 0,-3.96864 v -3.96878 h -3.968783 v 3.96878 z m 0,-3.96878 h 3.968782 v -3.96879 h -3.968782 z m 0,-3.96879 v -3.96877 h -3.968783 v 3.96877 z m 3.968782,0 h 3.968647 v -3.96877 h -3.968647 z m 3.968647,0 v 3.96879 h 3.968782 v -3.96879 z m 3.968782,0 h 3.968784 v -3.96877 h -3.968784 z m 3.968784,0 v 3.96879 h 3.968784 v -3.96879 z m 3.968784,0 H 43.6562 v -3.96877 h -3.968644 z m 3.968644,0 v 3.96879 h 3.968784 v -3.96879 z m 3.968784,0 h 3.96878 v -3.96877 h -3.96878 z m 3.96878,0 v 3.96879 h 3.96879 v -3.96879 z m 3.96879,0 h 3.96878 v -3.96877 h -3.96878 z m 3.96878,0 v 3.96879 h 3.96864 v -3.96879 z m 3.96864,0 h 3.96879 v -3.96877 h -3.96879 z m 3.96879,0 v 3.96879 h 3.968778 v -3.96879 z m 3.968778,0 h 3.96878 v -3.96877 h -3.96878 z m 0,3.96879 v 3.96878 h 3.96878 v -3.96878 z m 0,3.96878 h -3.968778 v 3.96864 h 3.968778 z m -3.968778,0 v -3.96878 h -3.96879 v 3.96878 z m -3.96879,0 h -3.96864 v 3.96864 h 3.96864 z m -3.96864,0 v -3.96878 h -3.96878 v 3.96878 z m -3.96878,0 h -3.96879 v 3.96864 h 3.96879 z m -3.96879,0 v -3.96878 h -3.96878 v 3.96878 z m -3.96878,0 H 43.6562 v 3.96864 h 3.968784 z m -3.968784,0 v -3.96878 h -3.968644 v 3.96878 z m -3.968644,0 h -3.968784 v 3.96864 h 3.968784 z m -3.968784,0 v -3.96878 h -3.968784 v 3.96878 z m -3.968784,0 h -3.968782 v 3.96864 h 3.968782 z m -3.968782,0 v -3.96878 h -3.968647 v 3.96878 z"
       id="rect817"
       inkscape:connector-curvature="0"
       inkscape:export-xdpi="96.000046"
       inkscape:export-ydpi="96.000046" />
  </g>
</svg>
